<?xml version="1.0" standalone="no"?>
<!DOCTYPE svg PUBLIC "-//W3C//DTD SVG 20010904//EN"
 "http://www.w3.org/TR/2001/REC-SVG-20010904/DTD/svg10.dtd">
<svg version="1.0" xmlns="http://www.w3.org/2000/svg"
 width="1080.000000pt" height="1080.000000pt" viewBox="0 0 1080.000000 1080.000000"
 preserveAspectRatio="xMidYMid meet">
<metadata>
Created by potrace 1.14, written by Peter Selinger 2001-2017
</metadata>
<g transform="translate(0.000000,1080.000000) scale(0.100000,-0.100000)"
fill="#000000" stroke="none">
<path d="M7708 9955 c-2 -2 -64 -6 -138 -9 -74 -4 -148 -9 -165 -11 -37 -5
-126 -15 -185 -21 -38 -4 -150 -21 -330 -50 -69 -11 -347 -75 -455 -104 -60
-17 -119 -32 -129 -35 -10 -2 -82 -25 -160 -51 -806 -265 -1547 -710 -2160
-1297 l-71 -68 -51 6 c-58 6 -87 12 -114 20 -10 3 -28 8 -39 10 -11 2 -59 22
-105 44 -219 102 -375 287 -447 527 -27 89 -34 281 -14 374 33 150 110 299
210 404 71 74 71 74 -95 17 -186 -64 -298 -116 -462 -218 -206 -127 -438 -339
-578 -528 -145 -194 -255 -406 -329 -630 -46 -140 -58 -186 -82 -325 -34 -199
-33 -572 2 -727 5 -24 11 -58 14 -76 2 -17 16 -74 29 -124 85 -310 250 -618
456 -854 47 -52 62 -79 78 -135 30 -101 67 -288 78 -394 7 -72 8 -344 1 -395
-3 -22 -9 -65 -13 -95 -7 -62 -8 -64 -30 -175 -47 -236 -196 -579 -337 -779
-150 -210 -354 -415 -544 -543 -59 -40 -78 -77 -118 -224 -34 -126 -40 -182
-40 -344 0 -221 31 -371 113 -548 21 -45 39 -85 40 -90 1 -4 31 -50 67 -103
99 -144 167 -214 335 -347 22 -18 157 -97 164 -97 2 0 7 26 11 58 18 153 38
262 75 417 95 393 264 780 489 1120 78 119 92 135 111 131 8 -1 40 -8 70 -14
158 -33 418 -34 531 -2 19 6 34 10 35 10 0 0 1 -6 1 -12 1 -26 15 -133 19
-139 2 -3 6 -21 9 -40 3 -19 10 -52 16 -74 5 -22 12 -49 14 -59 32 -137 136
-382 228 -536 51 -85 66 -108 141 -210 95 -128 275 -308 414 -412 83 -63 98
-79 95 -99 -9 -65 -47 -255 -69 -343 -13 -55 -23 -101 -21 -102 9 -10 245 88
312 129 39 24 140 93 164 112 63 51 183 178 235 247 l57 78 -24 52 c-65 143
-125 319 -142 423 -2 11 -8 47 -14 80 -22 130 -32 395 -17 480 2 17 8 55 11
85 13 114 78 354 122 450 152 337 345 585 616 792 46 35 61 38 107 21 8 -3 20
-7 25 -9 20 -4 161 -56 195 -71 234 -102 436 -232 614 -393 357 -324 598 -763
681 -1238 23 -133 28 -203 29 -362 1 -172 -8 -273 -35 -406 -5 -28 -12 -61
-14 -75 -10 -52 -66 -243 -80 -270 -9 -16 -13 -29 -11 -29 11 0 -108 -245
-171 -352 -33 -55 -119 -182 -136 -200 -7 -7 -34 -40 -62 -73 -61 -74 -164
-179 -228 -234 -27 -22 -44 -41 -39 -41 5 0 54 18 108 41 441 183 815 432
1148 763 138 137 199 205 315 356 44 58 85 110 91 117 5 7 10 15 10 18 0 3 15
26 34 52 48 68 126 198 176 294 7 13 17 31 22 39 8 15 46 94 86 180 112 242
209 560 256 840 3 19 8 44 10 56 2 12 7 43 10 70 4 27 8 65 11 84 24 190 24
654 1 776 -2 11 -7 48 -11 84 -3 36 -8 72 -10 80 -2 8 -7 31 -10 50 -32 196
-141 591 -185 670 -10 18 37 89 102 151 48 45 146 101 203 114 17 4 39 9 50
12 11 2 47 4 80 4 175 1 318 -74 425 -221 l32 -45 -5 180 c-4 99 -9 196 -12
215 -20 126 -30 176 -51 260 -97 393 -300 740 -602 1031 -314 304 -723 511
-1142 577 -142 23 -182 26 -360 26 -241 0 -367 -16 -576 -73 l-105 -29 -8 22
c-48 125 -66 234 -57 356 3 47 8 97 11 111 68 339 348 603 695 656 46 8 192 7
238 -1 l37 -6 -30 26 c-34 29 -141 111 -175 134 -12 8 -32 22 -44 31 -45 33
-208 121 -304 164 -128 56 -260 100 -425 140 -10 2 -54 9 -98 16 -43 6 -79 15
-79 19 0 6 281 150 294 150 2 0 42 17 88 39 180 83 640 246 778 276 8 2 53 13
100 25 47 12 94 24 105 26 11 2 32 6 47 10 15 3 31 6 35 6 5 0 18 4 30 9 13 5
44 11 70 15 27 3 50 8 53 9 3 2 26 6 50 9 25 4 56 9 70 11 50 10 66 13 120 20
30 4 63 9 72 10 9 2 48 7 85 10 80 8 104 13 110 19 3 3 -3 5 -13 4 -11 0 -71
3 -134 7 -104 7 -576 15 -582 10z m-4258 -5610 c-4 -22 -11 -60 -14 -85 -3
-25 -8 -56 -11 -70 -3 -14 -9 -104 -12 -200 -3 -96 -7 -176 -8 -178 -2 -2 -34
2 -71 9 -82 14 -228 60 -302 94 l-53 25 29 38 c69 86 436 422 448 410 1 -2 -1
-21 -6 -43z"/>
</g>
</svg>
